<!DOCTYPE svg PUBLIC "-//W3C//DTD SVG 1.1//EN" "http://www.w3.org/Graphics/SVG/1.1/DTD/svg11.dtd">
<!-- Uploaded to: SVG Repo, www.svgrepo.com, Transformed by: SVG Repo Mixer Tools -->
<svg fill="#ffffff" height="800px" width="800px" version="1.1" id="Layer_1" xmlns="http://www.w3.org/2000/svg" xmlns:xlink="http://www.w3.org/1999/xlink" viewBox="0 0 512 512" xml:space="preserve" stroke="#ffffff">
<g id="SVGRepo_bgCarrier" stroke-width="0"/>
<g id="SVGRepo_tracerCarrier" stroke-linecap="round" stroke-linejoin="round"/>
<g id="SVGRepo_iconCarrier"> <g> <g> <path d="M212.6,258.187h-3.313c-5.632,0-10.199,4.566-10.199,10.199s4.567,10.199,10.199,10.199h3.313 c5.632,0,10.199-4.566,10.199-10.199S218.233,258.187,212.6,258.187z"/> </g> </g> <g> <g> <path d="M309.318,258.187h-64.415c-5.632,0-10.199,4.566-10.199,10.199s4.567,10.199,10.199,10.199h64.415 c5.632,0,10.199-4.566,10.199-10.199S314.951,258.187,309.318,258.187z"/> </g> </g> <g> <g> <path d="M501.801,177.824H465.46c-5.632,0-10.199,4.566-10.199,10.199v8.863H383.8v-10.882c0-30.022-24.424-54.446-54.446-54.446 H190.225c-30.022,0-54.447,24.425-54.447,54.446v10.883h-23.607c-5.632,0-10.199,4.566-10.199,10.199v19.737l-54.718-17.235 c-0.799-0.252-1.617-0.397-2.435-0.448c-0.008-0.001-0.016-0.005-0.024-0.005l-33.991-2.018c-2.801-0.161-5.555,0.832-7.599,2.759 S0,214.488,0,217.298V359.63c0,2.81,1.16,5.495,3.205,7.423c1.898,1.788,4.402,2.776,6.995,2.776c0.201,0,0.403-0.006,0.605-0.018 l33.991-2.018c0.007,0,0.013-0.005,0.02-0.005c0.802-0.049,1.603-0.19,2.388-0.431l54.77-16.928v19.815 c0,5.633,4.567,10.199,10.199,10.199h295.235c5.632,0,10.199-4.566,10.199-10.199V262.827h37.655v8.863 c0,5.633,4.567,10.199,10.199,10.199h36.34c5.632,0,10.199-4.566,10.199-10.199v-83.667 C512,182.39,507.433,177.824,501.801,177.824z M33.991,348l-13.592,0.806V228.121l13.592,0.808V348z M101.972,329.076 l-47.582,14.707V233.222l47.582,14.987V329.076z M156.176,186.004c0-18.775,15.274-34.048,34.049-34.048h139.128 c18.774,0,34.048,15.274,34.048,34.048v10.883H156.176V186.004z M332.185,217.285v71.008H187.392v-71.008H332.185z M122.37,360.043V217.285h44.624v81.207c0,5.633,4.567,10.199,10.199,10.199h165.191c5.632,0,10.199-4.566,10.199-10.199v-81.207 h44.624v142.757H122.37z M455.261,242.428h-37.656v-25.143h37.656V242.428z M491.602,261.492h-15.942v-8.863v-45.541v-8.863 h15.942V261.492z"/> </g> </g> </g>
</svg>